<?xml version="1.0" encoding="utf-8"?>
<!-- Svg Vector Icons : http://www.onlinewebfonts.com/icon -->
<!DOCTYPE svg PUBLIC "-//W3C//DTD SVG 1.1//EN" "http://www.w3.org/Graphics/SVG/1.1/DTD/svg11.dtd">
<svg version="1.1" xmlns="http://www.w3.org/2000/svg" xmlns:xlink="http://www.w3.org/1999/xlink" x="0px" y="0px" viewBox="0 0 1000 1000" enable-background="new 0 0 1000 1000" xml:space="preserve">
<metadata> Svg Vector Icons : http://www.onlinewebfonts.com/icon </metadata>
<g><path d="M885.7,114.3H93.4c-46.1,0-83.4,37.3-83.4,83.4v500.4c0,46.1,37.3,83.4,83.4,83.4h83.4V990l208.5-208.5h500.4c46.1,0,83.4-37.3,83.4-83.4V197.7C969.1,151.6,931.8,114.3,885.7,114.3z M281.1,510.4c-34.6,0-62.6-28-62.6-62.6c0-34.5,28-62.6,62.6-62.6c34.6,0,62.6,28,62.6,62.6C343.6,482.4,315.6,510.4,281.1,510.4z M489.6,510.4c-34.6,0-62.6-28-62.6-62.6c0-34.5,28-62.6,62.6-62.6c34.6,0,62.6,28,62.6,62.6C552.1,482.4,524.1,510.4,489.6,510.4z M698.1,510.4c-34.6,0-62.6-28-62.6-62.6c0-34.5,28-62.6,62.6-62.6c34.6,0,62.6,28,62.6,62.6C760.6,482.4,732.7,510.4,698.1,510.4z"/><path d="M990,10"/></g>
</svg>