<?xml version="1.0" encoding="utf-8"?>
<!-- Svg Vector Icons : http://www.onlinewebfonts.com/icon -->
<!DOCTYPE svg PUBLIC "-//W3C//DTD SVG 1.1//EN" "http://www.w3.org/Graphics/SVG/1.1/DTD/svg11.dtd">
<svg version="1.1" xmlns="http://www.w3.org/2000/svg" xmlns:xlink="http://www.w3.org/1999/xlink" x="0px" y="0px" viewBox="0 0 1000 1000" enable-background="new 0 0 1000 1000" xml:space="preserve">
<metadata> Svg Vector Icons : http://www.onlinewebfonts.com/icon </metadata>
<g><g transform="translate(0.000000,512.000000) scale(0.100000,-0.100000)"><path d="M2677.4,5008.9c-567.2-84.3-1052-504-1247.5-1078.9c-107.3-310.4-103.5-218.5-103.5-3359.2v-2901.2H841.6c-463.7,0-488.7-1.9-569.1-42.2C167.1-2426.2,100-2543.1,100-2675.3c0-381.3,128.4-835.5,331.5-1178.5c107.3-185.9,373.7-473.3,536.6-582.6c253-170.5,571.1-287.4,894.9-327.7c132.2-15.3,829.7-19.2,2539.1-15.3c2205.6,5.7,2364.7,9.6,2472,42.2c546.1,164.8,935.1,561.5,1115.3,1136.3l53.6,168.6l9.6,3008.6l9.6,3008.5l827.8,9.6c797.2,9.6,829.7,11.5,879.6,49.8c118.8,88.2,132.2,126.5,130.3,358.3c-7.7,536.6-185.9,1078.9-475.3,1444.9c-151.4,189.7-314.3,323.8-519.3,425.4c-316.2,157.1-32.6,143.7-3257.7,147.6C4066.7,5022.3,2729.1,5016.6,2677.4,5008.9z M8723.2,4267.3c323.8-161,551.9-515.5,561.5-870c3.8-105.4-1.9-120.7-49.8-162.9l-53.7-46h-565.3h-563.4v293.2c0,463.7,40.2,619,189.7,743.5C8397.5,4357.4,8523.9,4368.9,8723.2,4267.3z M3618.3,1921.8c151.4-72.8,214.6-264.4,138-410.1c-17.2-30.7-264.4-289.4-551.9-573l-521.2-515.5l538.5-538.5c584.5-584.5,599.8-605.5,557.6-756.9c-38.3-147.6-151.4-235.7-297-235.7c-46,0-103.5,11.5-130.3,26.8c-74.7,40.2-1347.1,1301.1-1381.6,1370.1c-38.3,74.7-40.2,178.2-3.8,260.6c36.4,84.3,1305,1345.2,1391.2,1381.6C3449.6,1971.6,3522.5,1969.7,3618.3,1921.8z M6036.6,1929.5c32.6-19.2,358.3-331.5,722.4-695.6c555.7-555.7,665-672.6,682.2-737.8c44.1-159,34.5-170.5-678.3-887.2c-360.3-362.2-680.3-672.6-712.9-687.9c-126.5-69-310.4-24.9-398.6,93.9c-53.7,72.8-65.2,222.3-23,310.4c21.1,42.2,243.4,276,557.6,582.6l525.1,513.6l-528.9,525c-289.4,289.4-540.4,550-555.7,578.7c-34.5,65.2-34.5,193.5,0,260.6C5707,1941,5892.9,2006.1,6036.6,1929.5z M5620.8-2999.2c49.8-49.8,55.6-70.9,55.6-170.5c0-189.7,93.9-350.7,346.8-601.7c136.1-134.1,208.9-218.4,208.9-245.3c0-23-24.9-67.1-55.6-97.7l-55.6-55.6H3932.5c-2441.3,0-2351.3-3.8-2634.9,134.1c-331.5,161-555.7,490.6-576.8,843.2c-9.6,149.5,1.9,182,78.6,226.1c28.7,15.3,661.1,21.1,2401.1,23h2364.7L5620.8-2999.2z"/></g></g>
</svg>