<?xml version="1.0" encoding="utf-8"?>
<!-- Svg Vector Icons : http://www.onlinewebfonts.com/icon -->
<!DOCTYPE svg PUBLIC "-//W3C//DTD SVG 1.1//EN" "http://www.w3.org/Graphics/SVG/1.1/DTD/svg11.dtd">
<svg version="1.1" xmlns="http://www.w3.org/2000/svg" xmlns:xlink="http://www.w3.org/1999/xlink" x="0px" y="0px" viewBox="0 0 1000 1000" enable-background="new 0 0 1000 1000" xml:space="preserve">
<metadata> Svg Vector Icons : http://www.onlinewebfonts.com/icon </metadata>
<g><g><g><path d="M904,427.1c-0.2-48.7-9.8-192.9-108.8-298C725.9,55.4,627.6,17.4,503.1,16.2h-6.2C372.4,17.4,274.2,55.4,204.8,129C105.9,234.2,96.2,378.4,96,427.1C67,437,10,471.3,10,586.3l0.1,304.2c3.8,32.3,30.7,93.3,104.6,93.3h65.6c7.6-0.1,46.7-1.9,73.8-29.8c17.5-18,26-42.3,25.5-72.2c-0.4-22-2.6-40.5-7-58c71.1-147.6,9.8-276.6-5.3-304.6c-0.6-30.4-7.5-52.9-21-68.8c-11.7-13.8-28.1-22.4-48.7-25.8c11.7-58.2,65.3-216,302.3-217.4c237,1.4,290.7,159.1,302.4,217.4c-20.6,3.4-37,12.1-48.7,25.8c-13.3,15.8-20.2,38-21,68.1c-11.3,20.7-78.4,154.8-5.5,305.7c-4.2,17.6-6.5,35.9-6.8,57.5c-0.5,30,8,54.3,25.5,72.2c26.1,26.8,63,29.6,74.4,29.8h65c74.1,0,100.9-62,104.8-95.5v-302C990,471.3,933.1,437,904,427.1z M257,617.7c0.8-4.9,1.6-9.8,2.4-14.6c11,44,15.9,102-4.1,165c-4.2-15.7-7.5-35-8-65C246.9,679,251.8,649.5,257,617.7z M744.6,768.6c-20.2-63.4-15.2-121.7-4-166.1c0.8,5.2,1.7,10.4,2.6,15.8c5.2,31.2,10,60.7,9.6,84.8C752.2,733.3,748.9,752.8,744.6,768.6z M885.2,946.8H820c-1.2,0-30-0.4-47.7-18.6c-10.3-10.6-15.4-26-15-45.8c0.6-38,7.3-57.1,14.4-77.5c8.4-24.1,17.1-48.9,18-101.3c0.4-27.5-4.7-58.7-10.2-92.1c-9.1-55.4-18.6-112.6,2.3-137.2c8.3-9.7,21.9-14.4,41.8-14.4h20L842,440c-0.2-2.7-23.2-266.2-338.9-269.7h-6.2C181.2,173.8,158.2,437.4,158,440l-1.6,20h20c19.9,0,33.5,4.7,41.8,14.4c20.9,24.6,11.5,81.9,2.3,137.6c-5.5,33.1-10.6,64.2-10.2,91.8c0.8,52.3,9.5,77.2,18,101.4c7.1,20.2,13.7,39.4,14.4,77.4c0.4,19.8-4.7,35.2-15,45.7c-17.7,18.2-46.3,18.6-47.5,18.6h-65.4c-55.3,0-66.2-49.5-67.8-58.6v-302c0-118.8,66.4-126.2,69.1-126.4l18.2-1.3l-1-18.1c-0.1-1.7-7.9-173,98.5-286C294.4,87.8,384.7,53.8,500,53.2c115.2,0.6,205.5,34.6,268.2,101.1c106.5,113,98.7,284.4,98.6,286.1l-1,18.1l18.1,1.3c2.8,0.3,69.2,7.6,69.2,126.4l0.1,299.8C952.9,888.5,944.9,946.8,885.2,946.8z"/><path d="M637.6,649.1c-9.8,0-18,7.2-18.9,16.8l-7.5,81.8l-9-26.1c-2.5-7-9.3-11.6-17.5-11.6c-8.2,0-15,4.6-17.5,11.6l-14.5,42.1l-51.6-267.1c-1.7-8.7-9.3-15-18.7-15c-9.1,0.3-16.6,7-17.8,16l-28.2,204.9l-26-58.1c-3-6.7-9.6-10.9-17.3-10.9c-7.5,0.2-14.1,4.8-16.8,11.7l-46.2,117.1c-1.8,4.6-1.7,9.6,0.2,14.1c1.9,4.6,5.6,8,10.1,9.8c9.3,3.7,20.4-1.2,24-10.4l30.1-76.2l34.4,77c3.3,7.3,10.4,12,19.5,10.8c8.1-1.1,14.6-7.6,15.7-15.8l21.7-158.1l43.5,225.2c1.6,8.2,8.5,14.3,16.6,14.9l1.9,0.1c7.6,0,14.6-5.2,17.1-12.5l19.5-56.7l19.5,56.7c2.6,7.5,9.6,12.5,17.5,12.5l2.2-0.2c8.6-1,15.4-8,16.2-16.7l15.4-167.5C656.5,659.1,649,650,637.6,649.1z M548.1,847.5l0-0.2h0V847.5z"/></g></g><g></g><g></g><g></g><g></g><g></g><g></g><g></g><g></g><g></g><g></g><g></g><g></g><g></g><g></g><g></g></g>
</svg>