<?xml version="1.0" encoding="utf-8"?>
<!-- Svg Vector Icons : http://www.onlinewebfonts.com/icon -->
<!DOCTYPE svg PUBLIC "-//W3C//DTD SVG 1.1//EN" "http://www.w3.org/Graphics/SVG/1.1/DTD/svg11.dtd">
<svg version="1.1" xmlns="http://www.w3.org/2000/svg" xmlns:xlink="http://www.w3.org/1999/xlink" x="0px" y="0px" viewBox="0 0 1000 1000" enable-background="new 0 0 1000 1000" xml:space="preserve">
<metadata> Svg Vector Icons : http://www.onlinewebfonts.com/icon </metadata>
<g><path d="M462.5,820.7c0,20.7-17.7,37.4-37.5,37.4c-10.4,0-19.8-4.1-26.1-11.4l-197-196.1H47.5c-19.9,0-37.5-16.6-37.5-37.5V386.9c0-20.8,17.7-37.6,37.5-37.6h154.3l195.9-195.9c7.3-7.3,16.7-11.4,26.1-11.4c20.9,0,37.5,17.6,37.5,37.5v641.3L462.5,820.7L462.5,820.7z M597,638.2c-4.1,2.2-10.5,2.2-14.6,2.2c-20.8,0-37.5-16.7-37.5-37.7c0-43.7,67.7-32.2,67.7-103.1c0-70.9-67.7-58.5-67.7-103.3c0-21.9,16.7-37.5,37.5-37.5c4.2,0,10.5,0,14.6,2.1c55.3,22.9,90.7,80.3,90.7,139.7C687.8,560,652.3,616.4,597,638.2L597,638.2z M656.5,778c-5.2,1-10.4,2-14.6,2c-21.8,0-38.5-16.6-38.5-37.5c0-16.7,9.3-27,22.9-34.2c15.6-8.3,31.3-15.6,44.8-26.2c58.3-42.7,92.7-110.5,92.7-181.5c0-70.9-34.4-139.7-92.7-182.4c-13.5-10.5-28.2-17.8-43.9-26.2c-14.6-6.3-23.9-17.8-23.9-34.4c0-20.8,17.7-37.5,37.5-37.5c5.2,0,10.4,1,15.7,2.1C766.8,269.1,839,379.5,839,499.5C838.9,619.4,766.8,731,656.5,778L656.5,778z M715.8,915.6c-5.2,2-10.5,3-15.6,3c-20.8,0-37.5-16.6-37.5-37.4c0-16.7,9.4-26,22.9-34.4c8.3-4.1,17.8-7.4,26-12.6c16.7-9.3,33.5-18.7,49.1-30.2c96.8-70.9,153.2-183.4,153.2-304.4c0-121-57.3-232.5-153.2-303.5c-15.7-11.4-31.4-20.8-48.1-30.2c-9.4-4.1-18.7-7.4-27.2-11.4c-13.6-8.4-22.9-18.9-22.9-35.4c0-20.8,17.7-37.6,37.5-37.6c5,0,10.3,1.1,15.6,3.2C881.5,155.5,990,319.2,990,499.5C990.1,680,881.6,844.7,715.8,915.6L715.8,915.6z"/></g>
</svg>