<?xml version="1.0" encoding="utf-8"?>
<!-- Svg Vector Icons : http://www.onlinewebfonts.com/icon -->
<!DOCTYPE svg PUBLIC "-//W3C//DTD SVG 1.1//EN" "http://www.w3.org/Graphics/SVG/1.1/DTD/svg11.dtd">
<svg version="1.1" xmlns="http://www.w3.org/2000/svg" xmlns:xlink="http://www.w3.org/1999/xlink" x="0px" y="0px" viewBox="0 0 1000 1000" enable-background="new 0 0 1000 1000" xml:space="preserve">
<metadata> Svg Vector Icons : http://www.onlinewebfonts.com/icon </metadata>
<g><path d="M439,895.7H211.8c-36.5,0-66.2-29.7-66.2-66.2V180.4c0-36.5,29.7-66.2,66.2-66.2h62.3c0.1,0,0.2,0,0.2,0c11.4,26.7,38,45.5,68.8,45.5H606c30.9,0,57.4-18.8,68.8-45.5c0.6,0,1.1,0.1,1.7,0.1h57.4c36.5,0,66.2,29.7,66.2,66.2v397.8c0,16.2,13.2,29.4,29.4,29.4c16.2,0,29.4-13.2,29.4-29.4V180.4c0-68.9-56-124.9-124.9-124.9h-57.4c-0.6,0-1.1,0-1.7,0.1C663.4,28.8,636.9,10,606,10H343.2c-30.8,0-57.4,18.8-68.8,45.5c-0.1,0-0.2,0-0.2,0h-62.3c-68.9,0-124.9,56-124.9,124.9v649.1c0,68.9,56,124.9,124.9,124.9H439c16.2,0,29.4-13.2,29.4-29.4S455.2,895.7,439,895.7z M343.2,45.3H606c21.8,0,39.6,17.8,39.6,39.6c0,21.8-17.8,39.6-39.6,39.6H343.2c-21.8,0-39.6-17.8-39.6-39.6C303.7,63,321.4,45.3,343.2,45.3z"/><path d="M888.4,720.9c-9.7,0-17.6,7.9-17.6,17.6v193.9c0,12.3-10,22.4-22.4,22.4H565.1c-12.3,0-22.4-10-22.4-22.4V709.1c0-12.3,10-22.4,22.4-22.4h224.8c9.7,0,17.6-7.9,17.6-17.6c0-9.7-7.9-17.6-17.6-17.6H565.1c-31.8,0-57.6,25.8-57.6,57.6v223.3c0,31.8,25.8,57.6,57.6,57.6h283.3c31.8,0,57.6-25.8,57.6-57.6V738.5C906,728.8,898.1,720.9,888.4,720.9z"/><path d="M903.9,599.9c-8.5-4.7-19.3-1.6-23.9,7L741.3,859.7l-50-125.2c-3.6-9-13.9-13.4-22.9-9.8c-9,3.6-13.4,13.9-9.8,22.9L722.2,907c2.8,6.9,9.4,11.1,16.4,11.1c2.2,0,4.4-0.4,6.5-1.3c5.3-2.1,9-6.6,10.4-11.8c1.3-1.2,2.5-2.7,3.4-4.3l152-276.9C915.6,615.3,912.5,604.6,903.9,599.9z"/><path d="M574.1,229.9H258.2c-9.7,0-17.6,7.9-17.6,17.6c0,9.7,7.9,17.6,17.6,17.6h315.9c9.7,0,17.6-7.9,17.6-17.6C591.7,237.8,583.8,229.9,574.1,229.9z"/><path d="M683.9,229.9h-32.3c-9.7,0-17.6,7.9-17.6,17.6c0,9.7,7.9,17.6,17.6,17.6h32.3c9.7,0,17.6-7.9,17.6-17.6C701.5,237.8,693.6,229.9,683.9,229.9z"/><path d="M574.1,383.1H258.2c-9.7,0-17.6,7.9-17.6,17.6c0,9.7,7.9,17.6,17.6,17.6h315.9c9.7,0,17.6-7.9,17.6-17.6C591.7,391,583.8,383.1,574.1,383.1z"/><path d="M683.9,383.1h-32.3c-9.7,0-17.6,7.9-17.6,17.6c0,9.7,7.9,17.6,17.6,17.6h32.3c9.7,0,17.6-7.9,17.6-17.6C701.5,391,693.6,383.1,683.9,383.1z"/><path d="M574.1,536.2H258.2c-9.7,0-17.6,7.9-17.6,17.6s7.9,17.6,17.6,17.6h315.9c9.7,0,17.6-7.9,17.6-17.6S583.8,536.2,574.1,536.2z"/><path d="M683.9,536.2h-32.3c-9.7,0-17.6,7.9-17.6,17.6s7.9,17.6,17.6,17.6h32.3c9.7,0,17.6-7.9,17.6-17.6S693.6,536.2,683.9,536.2z"/></g>
</svg>