<?xml version="1.0" encoding="utf-8"?>
<!-- Svg Vector Icons : http://www.onlinewebfonts.com/icon -->
<!DOCTYPE svg PUBLIC "-//W3C//DTD SVG 1.1//EN" "http://www.w3.org/Graphics/SVG/1.1/DTD/svg11.dtd">
<svg version="1.1" xmlns="http://www.w3.org/2000/svg" xmlns:xlink="http://www.w3.org/1999/xlink" x="0px" y="0px" viewBox="0 0 256 256" enable-background="new 0 0 256 256" xml:space="preserve">
<metadata> Svg Vector Icons : http://www.onlinewebfonts.com/icon </metadata>
<g><g><path fill="#000000" d="M201.6,61.5l13.9-13.9l9.3,9.3l-13.9,13.9L201.6,61.5z M134.6,36.2h-13.1V23.1h-13.1V10h39.3v13.1h-13.1L134.6,36.2L134.6,36.2z M232.9,141.1c0,57.9-47,104.9-104.9,104.9c-57.9,0-104.9-47-104.9-104.9c0-57.9,47-104.9,104.9-104.9C185.9,36.2,232.9,83.2,232.9,141.1z M36.2,141.1c0,50.7,41.1,91.8,91.8,91.8s91.8-41.1,91.8-91.8c0-50.7-41.1-91.8-91.8-91.8S36.2,90.4,36.2,141.1z M134.6,75.6v54.3c3.9,2.3,6.6,6.5,6.6,11.3c0,7.2-5.9,13.1-13.1,13.1c-7.2,0-13.1-5.9-13.1-13.1c0-4.8,2.6-9,6.5-11.3V75.6H134.6z"/></g></g>
</svg>